<svg width="20" height="20" viewBox="0 0 20 20" fill="none" xmlns="http://www.w3.org/2000/svg">
<path d="M8.70008 0.5C11.0001 0.5 13.0001 2.5 13.0001 4.9C13.0001 7.3 11.1001 9.3 8.70008 9.3C6.30008 9.3 4.40008 7.3 4.40008 4.9C4.30008 2.5 6.30008 0.5 8.70008 0.5Z" fill="#BDBDBD"/>
<path d="M8.7 11.3999C2.1 11.3999 0 15.7999 0 15.7999V17.9999H10.7C10.2 17.1999 9.9 16.1999 9.9 15.0999C9.9 13.7999 10.3 12.5999 11 11.5999C10.3 11.4999 9.5 11.3999 8.7 11.3999Z" fill="#BDBDBD"/>
<path fill-rule="evenodd" clip-rule="evenodd" d="M20 15C20 17.4853 17.9853 19.5 15.5 19.5C13.0147 19.5 11 17.4853 11 15C11 12.5147 13.0147 10.5 15.5 10.5C17.9853 10.5 20 12.5147 20 15ZM15 14.5V12.5H16V14.5H18V15.5H16V17.5H15V15.5H13V14.5H15Z" fill="#BDBDBD"/>
</svg>
