<?xml version="1.0" encoding="utf-8"?>
<!-- Generator: Adobe Illustrator 21.1.0, SVG Export Plug-In . SVG Version: 6.00 Build 0)  -->
<svg  width="100" height="100" version="1.1" id="Layer_1" xmlns="http://www.w3.org/2000/svg" xmlns:xlink="http://www.w3.org/1999/xlink" x="0px" y="0px"
	 viewBox="0 0 119 114" style="enable-background:new 0 0 119 114;" xml:space="preserve">
<style type="text/css">
	.st0{fill-rule:evenodd;clip-rule:evenodd;fill:#FFD659;}
	.st1{clip-path:url(#SVGID_2_);}
	.st2{fill-rule:evenodd;clip-rule:evenodd;fill:#FBBC05;}
	.st3{fill-rule:evenodd;clip-rule:evenodd;fill:#E8F1FF;}
	.st4{fill-rule:evenodd;clip-rule:evenodd;fill:#7FB0FF;}
	.st5{fill-rule:evenodd;clip-rule:evenodd;fill:#4285F4;}
	.st6{clip-path:url(#SVGID_4_);}
	.st7{fill-rule:evenodd;clip-rule:evenodd;fill:#A6C8FF;}
	.st8{fill:#666666;}
	.st9{fill-rule:evenodd;clip-rule:evenodd;fill:#87B1F5;}
</style>
<g>
	<g>
		<polygon class="st0" points="0,40.3 59.5,1.5 119,40.3 		"/>
	</g>
	<g>
		<path class="st0" d="M0,40.3L59.5,79L119,40.3v68.9c0,2.4-2,4.3-4.3,4.3H4.3c-2.4,0-4.3-1.9-4.3-4.3V40.3z"/>
	</g>
	<g>
		<defs>
			<path id="SVGID_1_" d="M0,40.3L59.5,79L119,40.3v68.9c0,2.4-2,4.3-4.3,4.3H4.3c-2.4,0-4.3-1.9-4.3-4.3V40.3z"/>
		</defs>
		<clipPath id="SVGID_2_">
			<use xlink:href="#SVGID_1_"  style="overflow:visible;"/>
		</clipPath>
		<g class="st1">
			<path class="st2" d="M0,40.3L59.5,79c-26.9,17.3-34.6,21.9-55.2,34.5c-2.3,0-4.3-1.9-4.3-4.3V40.3z"/>
		</g>
		<g class="st1">
			<path class="st2" d="M119,40.3L59.5,79c26.9,17.3,34.6,21.9,55.2,34.5c2.3,0,4.3-1.9,4.3-4.3V40.3z"/>
		</g>
	</g>
	<g>
		<polygon class="st0" points="0,40.3 59.5,79 119,40.3 		"/>
	</g>
	<g>
		<polygon class="st3" points="12.3,48.4 59.5,79 106.6,48.4 106.6,1.7 12.3,1.7 		"/>
	</g>
	<g>
		<path class="st4" d="M59.5,32.5c6.3,0,11.5-5.2,11.5-11.6c0-6.3-5.1-11.6-11.5-11.6S48,14.5,48,20.9C48,27.2,53.2,32.5,59.5,32.5
			L59.5,32.5z"/>
	</g>
	<g>
		<path class="st5" d="M59.5,10.3c5.8,0,10.5,4.8,10.5,10.6c0,5.9-4.7,10.6-10.5,10.6S49,26.7,49,20.9C49,15.1,53.7,10.3,59.5,10.3
			L59.5,10.3z"/>
	</g>
	<g>
		<defs>
			<path id="SVGID_3_" d="M59.5,10.3c5.8,0,10.5,4.8,10.5,10.6c0,5.9-4.7,10.6-10.5,10.6S49,26.7,49,20.9
				C49,15.1,53.7,10.3,59.5,10.3L59.5,10.3z"/>
		</defs>
		<clipPath id="SVGID_4_">
			<use xlink:href="#SVGID_3_"  style="overflow:visible;"/>
		</clipPath>
		<g class="st6">
			<path class="st3" d="M59.5,39.4c5.8,0,10.5-3.7,10.5-8.2c0-4.5-4.7-8.2-10.5-8.2c-5.8,0-10.6,3.7-10.6,8.2
				C49,35.8,53.7,39.4,59.5,39.4L59.5,39.4z"/>
		</g>
	</g>
	<g>
		<path class="st3" d="M59.5,21.2c2.1,0,3.8-1.8,3.8-3.9s-1.7-3.9-3.8-3.9s-3.9,1.7-3.9,3.9S57.4,21.2,59.5,21.2L59.5,21.2z"/>
	</g>
	<g>
		<polygon class="st7" points="12.3,48.3 12.3,43.3 63.6,76.3 59.5,79 		"/>
	</g>
	<g>
		<path class="st8" d="M33.4,49.4c-0.3,0-0.6-0.1-0.8-0.3c-0.6-0.5-0.6-1.3-0.2-1.8l2.5-3.1v-3.9c0-0.7,0.6-1.3,1.3-1.3
			s1.3,0.6,1.3,1.3v4.9l-3,3.8C34.1,49.2,33.7,49.4,33.4,49.4z"/>
	</g>
	<g>
		<path class="st8" d="M38.8,49.4c-0.4,0-0.8-0.2-1-0.5l-2.7-3.5c-0.4-0.6-0.3-1.4,0.2-1.8c0.6-0.4,1.4-0.3,1.8,0.2l2.7,3.5
			c0.4,0.6,0.3,1.4-0.2,1.8C39.4,49.3,39.1,49.4,38.8,49.4z"/>
	</g>
	<g>
		<path class="st8" d="M36.1,46.5c-0.5,0-0.9-0.2-1.1-0.7c-0.3-0.6-0.1-1.4,0.5-1.8l3.8-2.1c0.6-0.3,1.4-0.1,1.8,0.5
			c0.3,0.6,0.1,1.4-0.5,1.8l-3.8,2.1C36.5,46.4,36.3,46.5,36.1,46.5z"/>
	</g>
	<g>
		<path class="st8" d="M36.1,46.5c-0.2,0-0.4-0.1-0.6-0.2l-3.8-2.1c-0.6-0.4-0.9-1.1-0.5-1.8c0.3-0.6,1.1-0.9,1.8-0.5l3.8,2.1
			c0.6,0.4,0.9,1.1,0.5,1.8C37,46.2,36.6,46.5,36.1,46.5z"/>
	</g>
	<g>
		<path class="st8" d="M49,49.4c-0.3,0-0.6-0.1-0.8-0.3c-0.6-0.5-0.6-1.3-0.2-1.8l2.5-3.1v-3.9c0-0.7,0.6-1.3,1.3-1.3
			s1.3,0.6,1.3,1.3v4.9l-3,3.8C49.7,49.2,49.3,49.4,49,49.4z"/>
	</g>
	<g>
		<path class="st8" d="M54.4,49.4c-0.4,0-0.8-0.2-1-0.5l-2.7-3.5c-0.4-0.6-0.3-1.4,0.2-1.8c0.6-0.4,1.4-0.3,1.8,0.2l2.7,3.5
			c0.4,0.6,0.3,1.4-0.2,1.8C55,49.3,54.7,49.4,54.4,49.4z"/>
	</g>
	<g>
		<path class="st8" d="M51.7,46.5c-0.5,0-0.9-0.2-1.1-0.7c-0.3-0.6-0.1-1.4,0.5-1.8l3.8-2.1c0.6-0.3,1.4-0.1,1.8,0.5
			c0.3,0.6,0.1,1.4-0.5,1.8l-3.8,2.1C52.1,46.4,51.9,46.5,51.7,46.5z"/>
	</g>
	<g>
		<path class="st8" d="M51.7,46.5c-0.2,0-0.4-0.1-0.6-0.2l-3.8-2.1c-0.6-0.4-0.9-1.1-0.5-1.8c0.3-0.6,1.1-0.9,1.8-0.5l3.8,2.1
			c0.6,0.4,0.9,1.1,0.5,1.8C52.6,46.2,52.2,46.5,51.7,46.5z"/>
	</g>
	<g>
		<path class="st8" d="M64.6,49.4c-0.3,0-0.6-0.1-0.8-0.3c-0.6-0.5-0.6-1.3-0.2-1.8l2.5-3.1v-3.9c0-0.7,0.6-1.3,1.3-1.3
			c0.7,0,1.3,0.6,1.3,1.3v4.9l-3,3.8C65.3,49.2,64.9,49.4,64.6,49.4z"/>
	</g>
	<g>
		<path class="st8" d="M70,49.4c-0.4,0-0.8-0.2-1-0.5l-2.7-3.5c-0.4-0.6-0.3-1.4,0.2-1.8c0.6-0.4,1.4-0.4,1.8,0.2l2.7,3.5
			c0.4,0.6,0.3,1.4-0.2,1.8C70.6,49.3,70.3,49.4,70,49.4z"/>
	</g>
	<g>
		<path class="st8" d="M67.3,46.5c-0.5,0-0.9-0.2-1.1-0.7c-0.3-0.6-0.1-1.4,0.5-1.8l3.8-2.1c0.6-0.3,1.4-0.1,1.8,0.5
			c0.3,0.6,0.1,1.4-0.5,1.8l-3.8,2.1C67.7,46.4,67.5,46.5,67.3,46.5z"/>
	</g>
	<g>
		<path class="st8" d="M67.3,46.5c-0.2,0-0.4-0.1-0.6-0.2l-3.8-2.1c-0.6-0.4-0.9-1.1-0.5-1.8c0.3-0.6,1.1-0.9,1.8-0.5l3.8,2.1
			c0.6,0.4,0.9,1.1,0.5,1.8C68.2,46.2,67.8,46.5,67.3,46.5z"/>
	</g>
	<g>
		<path class="st8" d="M80.2,49.4c-0.3,0-0.6-0.1-0.8-0.3c-0.6-0.5-0.6-1.3-0.2-1.8l2.5-3.1v-3.9c0-0.7,0.6-1.3,1.3-1.3
			c0.7,0,1.3,0.6,1.3,1.3v4.9l-3,3.8C80.9,49.2,80.5,49.4,80.2,49.4z"/>
	</g>
	<g>
		<path class="st8" d="M85.6,49.4c-0.4,0-0.8-0.2-1-0.5l-2.7-3.5c-0.4-0.6-0.3-1.4,0.2-1.8c0.6-0.4,1.4-0.4,1.8,0.2l2.7,3.5
			c0.4,0.6,0.3,1.4-0.2,1.8C86.2,49.3,85.9,49.4,85.6,49.4z"/>
	</g>
	<g>
		<path class="st8" d="M82.9,46.5c-0.5,0-0.9-0.2-1.1-0.7c-0.3-0.6-0.1-1.4,0.5-1.8l3.8-2.1c0.6-0.3,1.4-0.1,1.8,0.5
			c0.3,0.6,0.1,1.4-0.5,1.8l-3.8,2.1C83.3,46.4,83.1,46.5,82.9,46.5z"/>
	</g>
	<g>
		<path class="st8" d="M82.9,46.5c-0.2,0-0.4-0.1-0.6-0.2l-3.8-2.1c-0.6-0.4-0.9-1.1-0.5-1.8c0.3-0.6,1.1-0.9,1.8-0.5l3.8,2.1
			c0.6,0.4,0.9,1.1,0.5,1.8C83.8,46.2,83.4,46.5,82.9,46.5z"/>
	</g>
	<g>
		<polygon class="st9" points="106.6,32.2 106.6,48.3 111.2,45.3 111.2,35.2 		"/>
	</g>
</g>
</svg>
