<svg width="15" height="12" viewBox="0 0 15 12" fill="none" xmlns="http://www.w3.org/2000/svg">
<path fill-rule="evenodd" clip-rule="evenodd" d="M6.78779 0.787948C6.51443 0.514581 6.07121 0.514581 5.79784 0.787948L1.08069 5.5051C0.807319 5.77847 0.807319 6.22169 1.08069 6.49505L5.79784 11.2122C6.07121 11.4856 6.51443 11.4856 6.78779 11.2122L7.21206 10.7879C7.48542 10.5146 7.48542 10.0714 7.21206 9.798L4.41406 7H14.4429C14.7502 7 15 6.731 15 6.4V5.6C15 5.269 14.7502 5 14.4429 5H4.41421L7.21206 2.20216C7.48542 1.92879 7.48542 1.48558 7.21206 1.21221L6.78779 0.787948Z" fill="#828282"/>
</svg>
